<svg width="294" height="38" viewBox="0 0 294 38" fill="none" xmlns="http://www.w3.org/2000/svg">
<path d="M9.84502 37.7297C6.37082 37.7297 3.89165 36.8283 2.40753 35.0254C0.957131 33.1892 0.231934 30.318 0.231934 26.4118C0.231934 25.1765 0.299394 23.8744 0.434314 22.5056C0.602965 21.1367 0.805346 19.7011 1.04146 18.1987C1.61487 14.5596 2.49185 11.4046 3.67241 8.7337C4.88669 6.06279 6.5226 3.99284 8.58014 2.52384C10.6377 1.02146 13.2518 0.270264 16.4224 0.270264C19.0871 0.270264 21.347 0.437195 23.2021 0.771058C25.0573 1.07154 26.7101 1.42209 28.1605 1.82273L27.8569 4.02622C26.4402 3.72575 24.7706 3.45866 22.848 3.22495C20.9254 2.99125 18.8172 2.8744 16.5236 2.8744C13.8926 2.8744 11.7508 3.50874 10.098 4.77742C8.44522 6.0461 7.12974 7.86565 6.15157 10.2361C5.20713 12.6065 4.46506 15.5278 3.92538 19C3.45316 22.0048 3.21705 24.5254 3.21705 26.562C3.21705 29.5 3.79046 31.6534 4.93729 33.0223C6.11784 34.3911 8.04046 35.0755 10.7051 35.0755C11.5821 35.0755 12.5266 34.992 13.5385 34.8251C14.5841 34.6582 15.6129 34.4579 16.6248 34.2242C17.6704 33.9905 18.6149 33.7567 19.4581 33.523C20.3014 33.256 20.9591 33.0223 21.4313 32.8219L23.3539 20.7528H13.6903L13.9938 18.5493C14.9045 18.4157 16.0514 18.3323 17.4343 18.2989C18.851 18.2321 20.5712 18.1987 22.595 18.1987C22.9998 18.1987 23.4383 18.2154 23.9105 18.2488C24.3827 18.2488 24.8381 18.2655 25.2766 18.2989C25.7488 18.2989 26.1873 18.3156 26.592 18.349L23.5563 37.4292H21.4313L21.3301 34.8251C20.8916 35.0254 20.2339 35.2925 19.3569 35.6264C18.5137 35.9602 17.5355 36.2941 16.4224 36.628C15.343 36.9285 14.2299 37.1955 13.0831 37.4292C11.9363 37.6296 10.8569 37.7297 9.84502 37.7297Z" fill="white"/>
<path d="M27.9379 37.4292L47.1641 0.6709H50.9587L57.8903 37.4292H54.8546L52.679 26.0612H36.9439L30.9736 37.4292H27.9379ZM38.1582 23.4571H52.3248L48.6314 3.37519L38.1582 23.4571Z" fill="white"/>
<path d="M61.7822 37.4292L71.9012 0.6709H74.6333L80.047 33.2226L95.9845 0.6709H98.7166L97.1482 37.4292H94.2643L95.7315 6.07948L80.806 37.4292H78.0738L73.1661 6.17964L64.7167 37.4292H61.7822Z" fill="white"/>
<path d="M107.942 37.7297C107.065 37.7297 106.205 37.6296 105.362 37.4292C104.519 37.2623 103.76 36.9285 103.085 36.4277C102.444 35.9269 101.955 35.2091 101.618 34.2742C101.314 33.306 101.281 32.0707 101.517 30.5684L105.21 7.53179C105.514 5.76232 106.07 4.37678 106.88 3.37519C107.689 2.3736 108.651 1.67249 109.764 1.27185C110.911 0.837832 112.108 0.637514 113.356 0.6709C115.852 0.704286 118.348 0.754366 120.844 0.82114C123.374 0.887912 125.904 0.971377 128.433 1.07154L128.029 3.32511H113.508C112.057 3.32511 110.86 3.69236 109.916 4.42686C108.971 5.16136 108.347 6.43004 108.044 8.2329L106.526 17.7981L123.526 18.1486L123.172 20.3021L106.07 20.5024L104.552 30.2178C104.35 31.5533 104.418 32.5715 104.755 33.2726C105.092 33.9738 105.615 34.4412 106.323 34.6749C107.065 34.9086 107.925 35.0254 108.904 35.0254H123.07L122.666 37.3291C120.271 37.3959 117.842 37.4626 115.38 37.5294C112.918 37.5962 110.438 37.6629 107.942 37.7297Z" fill="white"/>
<path d="M127.535 37.4292L132.089 8.78378C132.493 6.51351 133.202 4.77742 134.214 3.57551C135.225 2.34021 136.423 1.50556 137.806 1.07154C139.189 0.604129 140.589 0.370424 142.005 0.370424C144.906 0.370424 147.571 0.437196 149.999 0.57074C152.462 0.670899 154.89 0.821138 157.285 1.02146L156.324 7.23131H143.118C141.904 7.23131 141.01 7.53179 140.437 8.13274C139.863 8.70031 139.475 9.56836 139.273 10.7369L138.362 16.6963L152.377 17.097L151.416 22.9563L137.3 23.3068L135.023 37.4292H127.535Z" fill="white"/>
<path d="M154.829 37.4292L160.748 0.370424H168.236L162.317 37.4292H154.829Z" fill="white"/>
<path d="M167.349 37.4292L173.269 0.370424H179.289L191.028 24.8092L194.974 0.370424H202.462L196.492 37.4292H190.522L178.784 12.9404L174.837 37.4292H167.349Z" fill="white"/>
<path d="M201.165 37.4292L207.084 0.370424H221.302C224.573 0.370424 227.12 0.904606 228.942 1.97297C230.797 3.04133 232.078 4.54371 232.787 6.48012C233.529 8.38314 233.9 10.6534 233.9 13.2909C233.9 14.3593 233.849 15.461 233.748 16.5962C233.647 17.7313 233.495 18.8831 233.293 20.0517C232.82 23.0564 232.095 25.6606 231.117 27.8641C230.173 30.0342 228.958 31.837 227.474 33.2726C225.99 34.6749 224.236 35.7265 222.212 36.4277C220.189 37.0954 217.861 37.4292 215.23 37.4292H201.165ZM209.715 30.7687H215.989C217.44 30.7687 218.704 30.5016 219.784 29.9674C220.897 29.4332 221.841 28.6653 222.617 27.6637C223.427 26.6288 224.084 25.3768 224.59 23.9078C225.096 22.4388 225.501 20.7361 225.805 18.7997C225.973 17.6645 226.108 16.6463 226.209 15.7448C226.311 14.8434 226.361 14.1256 226.361 13.5914C226.361 12.0223 226.142 10.7703 225.703 9.83545C225.265 8.86724 224.54 8.16613 223.528 7.73211C222.516 7.2647 221.15 7.03099 219.43 7.03099H213.51L209.715 30.7687Z" fill="white"/>
<path d="M243.742 37.7297C242.797 37.7297 241.819 37.6296 240.807 37.4292C239.795 37.2289 238.868 36.8283 238.025 36.2273C237.181 35.6264 236.54 34.775 236.102 33.6733C235.663 32.5715 235.596 31.1359 235.9 29.3664L239.188 8.88393C239.526 6.71382 240.166 5.01112 241.111 3.77583C242.089 2.54053 243.27 1.67249 244.653 1.17169C246.069 0.637514 247.587 0.370424 249.206 0.370424C251.736 0.370424 254.249 0.437196 256.745 0.57074C259.275 0.670899 261.855 0.821138 264.486 1.02146L263.474 7.23131H250.269C249.088 7.23131 248.194 7.5151 247.587 8.08266C246.98 8.65023 246.575 9.53497 246.373 10.7369L245.614 15.5445L259.629 15.9952L258.667 21.8545L244.551 22.2552L243.742 27.4133C243.607 28.2146 243.641 28.8657 243.843 29.3664C244.045 29.8672 244.383 30.2345 244.855 30.4682C245.361 30.6685 245.985 30.7687 246.727 30.7687H259.73L258.769 36.9785C256.374 37.1788 253.945 37.3458 251.483 37.4793C249.021 37.6129 246.44 37.6963 243.742 37.7297Z" fill="white"/>
<path d="M263.411 37.4292L269.33 0.370424H283.649C285.167 0.370424 286.55 0.537356 287.798 0.871219C289.046 1.20508 290.108 1.73926 290.985 2.47376C291.896 3.17487 292.587 4.10969 293.06 5.27821C293.532 6.44673 293.768 7.88235 293.768 9.58505C293.768 10.0525 293.734 10.5533 293.667 11.0874C293.633 11.6216 293.565 12.1892 293.464 12.7901C293.228 14.5596 292.807 16.0286 292.199 17.1971C291.626 18.3657 290.968 19.3005 290.226 20.0016C289.484 20.7027 288.742 21.2369 288 21.6041C287.258 21.9714 286.617 22.2719 286.077 22.5056L290.631 37.4292H282.991L279.196 23.6574C278.792 23.6574 278.319 23.6574 277.78 23.6574C277.274 23.6574 276.734 23.6574 276.161 23.6574C275.621 23.6574 275.081 23.6574 274.542 23.6574C274.036 23.624 273.563 23.6073 273.125 23.6073L270.899 37.4292H263.411ZM274.036 17.748H280.36C281.473 17.748 282.401 17.5811 283.143 17.2472C283.885 16.9133 284.475 16.3625 284.914 15.5946C285.386 14.7933 285.723 13.6916 285.926 12.2893C285.993 11.9889 286.027 11.7051 286.027 11.438C286.06 11.1375 286.077 10.8704 286.077 10.6367C286.077 9.73529 285.909 9.03417 285.571 8.53338C285.268 7.9992 284.812 7.61525 284.205 7.38155C283.632 7.14785 282.94 7.03099 282.131 7.03099H275.756L274.036 17.748Z" fill="white"/>
</svg>
