<svg width="28" height="28" viewBox="0 0 28 28" fill="none" xmlns="http://www.w3.org/2000/svg">
<path fill-rule="evenodd" clip-rule="evenodd" d="M4.66667 5.83334C4.35725 5.83334 4.0605 5.95625 3.84171 6.17504C3.62292 6.39384 3.5 6.69058 3.5 7C3.5 7.30942 3.62292 7.60617 3.84171 7.82496C4.0605 8.04375 4.35725 8.16667 4.66667 8.16667H23.3333C23.6428 8.16667 23.9395 8.04375 24.1583 7.82496C24.3771 7.60617 24.5 7.30942 24.5 7C24.5 6.69058 24.3771 6.39384 24.1583 6.17504C23.9395 5.95625 23.6428 5.83334 23.3333 5.83334H4.66667ZM3.5 14C3.5 13.6906 3.62292 13.3938 3.84171 13.175C4.0605 12.9563 4.35725 12.8333 4.66667 12.8333H23.3333C23.6428 12.8333 23.9395 12.9563 24.1583 13.175C24.3771 13.3938 24.5 13.6906 24.5 14C24.5 14.3094 24.3771 14.6062 24.1583 14.825C23.9395 15.0438 23.6428 15.1667 23.3333 15.1667H4.66667C4.35725 15.1667 4.0605 15.0438 3.84171 14.825C3.62292 14.6062 3.5 14.3094 3.5 14ZM3.5 21C3.5 20.6906 3.62292 20.3938 3.84171 20.175C4.0605 19.9563 4.35725 19.8333 4.66667 19.8333H23.3333C23.6428 19.8333 23.9395 19.9563 24.1583 20.175C24.3771 20.3938 24.5 20.6906 24.5 21C24.5 21.3094 24.3771 21.6062 24.1583 21.825C23.9395 22.0438 23.6428 22.1667 23.3333 22.1667H4.66667C4.35725 22.1667 4.0605 22.0438 3.84171 21.825C3.62292 21.6062 3.5 21.3094 3.5 21Z" fill="white"/>
</svg>
