 <svg width="24" height="24" viewBox="0 0 24 24" fill="none" xmlns="http://www.w3.org/2000/svg"> 
   <path fill-rule="evenodd" clip-rule="evenodd" d="M11.293 2.29303C11.4805 2.10556 11.7348 2.00024 12 2.00024C12.2652 2.00024 12.5195 2.10556 12.707 2.29303L16.707 6.29303C16.8892 6.48163 16.99 6.73423 16.9877 6.99643C16.9854 7.25863 16.8802 7.50944 16.6948 7.69485C16.5094 7.88026 16.2586 7.98543 15.9964 7.9877C15.7342 7.98998 15.4816 7.88919 15.293 7.70703L13 5.41403V15C13 15.2652 12.8946 15.5196 12.7071 15.7071C12.5196 15.8947 12.2652 16 12 16C11.7348 16 11.4804 15.8947 11.2929 15.7071C11.1054 15.5196 11 15.2652 11 15V5.41403L8.707 7.70703C8.5184 7.88919 8.2658 7.98998 8.0036 7.9877C7.7414 7.98543 7.49059 7.88026 7.30518 7.69485C7.11977 7.50944 7.0146 7.25863 7.01233 6.99643C7.01005 6.73423 7.11084 6.48163 7.293 6.29303L11.293 2.29303ZM5 13C5 12.2044 5.31607 11.4413 5.87868 10.8787C6.44129 10.3161 7.20435 10 8 10H9C9.26522 10 9.51957 10.1054 9.70711 10.2929C9.89464 10.4805 10 10.7348 10 11C10 11.2652 9.89464 11.5196 9.70711 11.7071C9.51957 11.8947 9.26522 12 9 12H8C7.73478 12 7.48043 12.1054 7.29289 12.2929C7.10536 12.4805 7 12.7348 7 13V19C7 19.2652 7.10536 19.5196 7.29289 19.7071C7.48043 19.8947 7.73478 20 8 20H16C16.2652 20 16.5196 19.8947 16.7071 19.7071C16.8946 19.5196 17 19.2652 17 19V13C17 12.7348 16.8946 12.4805 16.7071 12.2929C16.5196 12.1054 16.2652 12 16 12H15C14.7348 12 14.4804 11.8947 14.2929 11.7071C14.1054 11.5196 14 11.2652 14 11C14 10.7348 14.1054 10.4805 14.2929 10.2929C14.4804 10.1054 14.7348 10 15 10H16C16.7956 10 17.5587 10.3161 18.1213 10.8787C18.6839 11.4413 19 12.2044 19 13V19C19 19.7957 18.6839 20.5587 18.1213 21.1214C17.5587 21.684 16.7956 22 16 22H8C7.20435 22 6.44129 21.684 5.87868 21.1214C5.31607 20.5587 5 19.7957 5 19V13Z" fill="#5fe19b" />
</svg>