<svg width="24" height="24" viewBox="0 0 24 24" fill="none" xmlns="http://www.w3.org/2000/svg">
    <path fill-rule="evenodd" clip-rule="evenodd" d="M23.8 18.3692L23.801 18.3722C24.131 18.8022 24.289 20.2311 22.026 19.9771C21.0968 19.8863 20.1834 19.6746 19.309 19.3471C18.6256 19.0851 17.9719 18.7513 17.359 18.3512C16.4507 18.7167 15.4886 18.9309 14.511 18.9851C13.8134 19.9213 12.9065 20.6813 11.8628 21.2046C10.8191 21.7279 9.66754 21.9999 8.50001 21.999C7.71224 21.9997 6.9293 21.8762 6.18001 21.633C5.74001 21.888 5.24001 22.137 4.68801 22.346C3.56801 22.77 2.63901 22.929 1.97101 22.976C1.47101 23.0129 1.11801 22.9869 0.944007 22.967C0.562007 22.923 0.220007 22.705 0.0720068 22.339C0.00844977 22.1806 -0.0135218 22.0086 0.00818299 21.8394C0.0298878 21.6701 0.0945468 21.5092 0.196007 21.372C0.448007 21.027 0.680007 20.6661 0.900007 20.3001C1.32801 19.5861 1.74801 18.8162 1.85401 17.9782C1.38506 17.083 1.10189 16.1023 1.02149 15.0949C0.941088 14.0875 1.06512 13.0743 1.38614 12.1161C1.70715 11.1578 2.21853 10.2744 2.88956 9.51869C3.56058 8.76303 4.37742 8.15078 5.29101 7.71869C5.61087 6.51028 6.17897 5.38175 6.95912 4.40502C7.73926 3.4283 8.71434 2.6248 9.8222 2.04573C10.9301 1.46666 12.1464 1.12473 13.3937 1.04172C14.6411 0.958707 15.892 1.13644 17.0669 1.5636C18.2417 1.99075 19.3147 2.65795 20.2174 3.52269C21.1201 4.38742 21.8327 5.43072 22.3099 6.58608C22.7871 7.74145 23.0183 8.98356 22.9889 10.2332C22.9595 11.4829 22.67 12.7128 22.139 13.8444C21.949 15.5683 22.816 17.0192 23.799 18.3692H23.8ZM7.00001 9.99958C7.00055 8.94483 7.23947 7.90384 7.69891 6.95439C8.15834 6.00495 8.82642 5.17161 9.65321 4.51664C10.48 3.86167 11.4441 3.402 12.4736 3.172C13.503 2.942 14.5711 2.9476 15.598 3.18838C16.625 3.42917 17.5842 3.89891 18.4041 4.56252C19.224 5.22612 19.8833 6.06643 20.3327 7.02063C20.7822 7.97484 21.0102 9.01828 20.9997 10.073C20.9891 11.1277 20.7404 12.1664 20.272 13.1114C20.224 13.208 20.1919 13.3116 20.177 13.4184C19.958 14.9933 20.327 16.4293 21.082 17.8082C19.9899 17.5425 18.9604 17.0651 18.052 16.4033C17.9061 16.2974 17.7342 16.233 17.5547 16.2168C17.3751 16.2006 17.1945 16.2332 17.032 16.3113C15.9647 16.8242 14.7848 17.0579 13.6025 16.9907C12.4203 16.9234 11.2744 16.5574 10.2722 15.9268C9.26994 15.2963 8.44403 14.4217 7.87176 13.3851C7.29948 12.3485 6.99955 11.1837 7.00001 9.99958ZM5.00401 10.2536C5.06025 12.2429 5.77405 14.1576 7.03384 15.6982C8.29362 17.2389 10.0284 18.3188 11.967 18.7692C10.9877 19.5666 9.76292 20.0011 8.50001 19.9991C7.77001 19.9991 7.07701 19.8581 6.44301 19.6021C6.29459 19.5421 6.13393 19.5186 5.97453 19.5335C5.81513 19.5485 5.66165 19.6015 5.52701 19.6881C5.08801 19.9711 4.56701 20.2531 3.97901 20.4761C3.6313 20.6086 3.2756 20.7192 2.91401 20.8071C3.24701 20.2001 3.58401 19.4771 3.73801 18.7972C3.81501 18.4602 3.85801 18.1332 3.87601 17.8262C3.88821 17.6288 3.84157 17.4322 3.74201 17.2612C3.25411 16.4227 2.99802 15.4695 3.00001 14.4994C3.00001 12.7894 3.78001 11.2625 5.00401 10.2536Z" fill="#5fe19b" />
</svg>