<svg width="20" height="20" viewBox="0 0 16 16" fill="none" xmlns="http://www.w3.org/2000/svg">
<path fillRule="evenodd" clipRule="evenodd" d="M11.9068 16H9.446C9.38323 16 9.33301 15.9497 9.33301 15.8868V0.100629C9.33301 0.0503145 9.37067 0 9.43345 0H11.9068C14.1667 0 15.9997 1.83648 15.9997 4.10063V11.8994C15.9997 14.1635 14.1667 16 11.9068 16ZM14.1039 8.80495C14.1039 7.91187 13.3757 7.18231 12.4843 7.18231C11.5929 7.18231 10.8773 7.91187 10.8647 8.80495C10.8647 9.69804 11.5929 10.4276 12.4843 10.4276C13.3757 10.4276 14.1039 9.69804 14.1039 8.80495Z" fill="#515151"/>
<path d="M2.66699 5.33327C2.66699 6.06661 3.26699 6.66661 4.00033 6.66661C4.73366 6.66661 5.33366 6.06661 5.33366 5.33327C5.33366 4.59994 4.73366 3.99994 4.00033 3.99994C3.25588 3.99994 2.66699 4.58883 2.66699 5.33327Z" fill="#515151"/>
<path fill-rule="evenodd" clip-rule="evenodd" d="M4.25449 0H7.88254C7.9478 0 8 0.0503145 8 0.113208V15.8868C8 15.9497 7.9478 16 7.88254 16H4.25449C1.90538 16 0 14.1635 0 11.8994V4.10063C0 1.83648 1.90538 0 4.25449 0ZM4.2545 14.717H6.66886V1.28302H4.2545C3.47147 1.28302 2.74064 1.58491 2.19251 2.11321C1.63134 2.64151 1.33118 3.34591 1.33118 4.10063V11.8994C1.33118 12.6541 1.64439 13.3585 2.19251 13.8868C2.74064 14.4277 3.47147 14.717 4.2545 14.717Z" fill="#515151"/>
</svg>
